<svg xmlns="http://www.w3.org/2000/svg" width="20" height="20" viewBox="0 0 20 20" fill="none">
  <g clip-path="url(#clip0_31470_486)">
    <path fill-rule="evenodd" clip-rule="evenodd" d="M9.99984 3.33325C10.4601 3.33325 10.8332 3.70635 10.8332 4.16659V15.8333C10.8332 16.2935 10.4601 16.6666 9.99984 16.6666C9.5396 16.6666 9.1665 16.2935 9.1665 15.8333V4.16659C9.1665 3.70635 9.5396 3.33325 9.99984 3.33325Z" fill="#4640DE"/>
    <path fill-rule="evenodd" clip-rule="evenodd" d="M3.3335 10.0001C3.3335 9.53984 3.70659 9.16675 4.16683 9.16675H15.8335C16.2937 9.16675 16.6668 9.53984 16.6668 10.0001C16.6668 10.4603 16.2937 10.8334 15.8335 10.8334H4.16683C3.70659 10.8334 3.3335 10.4603 3.3335 10.0001Z" fill="#4640DE"/>
  </g>
  <defs>
    <clipPath id="clip0_31470_486">
      <rect width="20" height="20" fill="white"/>
    </clipPath>
  </defs>
</svg>